<svg width="463" height="250" viewBox="0 0 463 250" fill="none" xmlns="http://www.w3.org/2000/svg">
<path d="M18.286 135.32C15.334 135.32 12.6553 134.582 10.25 133.106C7.84467 131.63 5.904 129.662 4.428 127.202C3.00667 124.687 2.296 121.899 2.296 118.838V92.844C2.296 89.892 3.00667 87.186 4.428 84.726C5.904 82.2113 7.84467 80.216 10.25 78.74C12.71 77.264 15.3887 76.526 18.286 76.526C21.2927 76.526 23.9987 77.264 26.404 78.74C28.864 80.1613 30.8047 82.102 32.226 84.562C33.6473 87.022 34.358 89.7827 34.358 92.844V96.616C34.358 96.8347 34.2213 96.944 33.948 96.944H24.764C24.5453 96.944 24.436 96.8347 24.436 96.616V93.5C24.436 91.4227 23.8347 89.7007 22.632 88.334C21.484 86.9673 20.0353 86.284 18.286 86.284C16.7007 86.284 15.2793 86.94 14.022 88.252C12.8193 89.564 12.218 91.0947 12.218 92.844V118.838C12.218 120.642 12.8193 122.2 14.022 123.512C15.2247 124.769 16.646 125.398 18.286 125.398C20.0353 125.398 21.484 124.769 22.632 123.512C23.8347 122.255 24.436 120.697 24.436 118.838V114.82H18.696C18.4227 114.82 18.286 114.683 18.286 114.41V105.226C18.286 104.953 18.4227 104.816 18.696 104.816H34.03C34.2487 104.816 34.358 104.953 34.358 105.226V118.838C34.358 121.899 33.62 124.687 32.144 127.202C30.7227 129.662 28.8093 131.63 26.404 133.106C23.9987 134.582 21.2927 135.32 18.286 135.32ZM40.606 134.5C40.3327 134.5 40.196 134.363 40.196 134.09L40.278 77.756C40.278 77.5373 40.3873 77.428 40.606 77.428H49.79C50.0087 77.428 50.118 77.5373 50.118 77.756L50.2 134.09C50.2 134.363 50.0907 134.5 49.872 134.5H40.606ZM71.3528 135.32C68.4008 135.32 65.6948 134.582 63.2348 133.106C60.8295 131.575 58.8888 129.58 57.4128 127.12C55.9915 124.605 55.2808 121.845 55.2808 118.838V115.066C55.2808 114.793 55.4175 114.656 55.6908 114.656H64.8748C65.0935 114.656 65.2028 114.793 65.2028 115.066V118.838C65.2028 120.642 65.8041 122.2 67.0068 123.512C68.2095 124.769 69.6581 125.398 71.3528 125.398C73.0475 125.398 74.4961 124.742 75.6988 123.43C76.9015 122.118 77.5028 120.587 77.5028 118.838C77.5028 116.815 76.1908 115.066 73.5668 113.59C72.6921 113.098 71.3255 112.333 69.4668 111.294C67.6081 110.255 65.8588 109.271 64.2188 108.342C61.2121 106.593 58.9708 104.406 57.4948 101.782C56.0735 99.1033 55.3628 96.0967 55.3628 92.762C55.3628 89.7007 56.1008 86.9673 57.5768 84.562C59.0528 82.102 60.9935 80.1613 63.3988 78.74C65.8588 77.3187 68.5101 76.608 71.3528 76.608C74.2501 76.608 76.9015 77.346 79.3068 78.822C81.7668 80.2433 83.7075 82.184 85.1288 84.644C86.6048 87.0493 87.3428 89.7553 87.3428 92.762V99.486C87.3428 99.7047 87.2335 99.814 87.0148 99.814H77.8308C77.6121 99.814 77.5028 99.7047 77.5028 99.486L77.4208 92.762C77.4208 90.8487 76.8195 89.2907 75.6168 88.088C74.4141 86.8853 72.9928 86.284 71.3528 86.284C69.6581 86.284 68.2095 86.94 67.0068 88.252C65.8041 89.5093 65.2028 91.0127 65.2028 92.762C65.2028 94.566 65.5855 96.0693 66.3508 97.272C67.1161 98.4747 68.5101 99.6227 70.5328 100.716C70.8061 100.88 71.3255 101.181 72.0908 101.618C72.9108 102.001 73.7855 102.465 74.7148 103.012C75.6441 103.504 76.4641 103.941 77.1748 104.324C77.9401 104.707 78.4048 104.953 78.5688 105.062C81.3021 106.593 83.4615 108.479 85.0468 110.72C86.6321 112.907 87.4248 115.613 87.4248 118.838C87.4248 121.954 86.6868 124.769 85.2108 127.284C83.7895 129.744 81.8488 131.712 79.3888 133.188C76.9835 134.609 74.3048 135.32 71.3528 135.32ZM106.187 135.32C103.235 135.32 100.529 134.582 98.0688 133.106C95.6635 131.575 93.7228 129.58 92.2468 127.12C90.8255 124.605 90.1148 121.845 90.1148 118.838V115.066C90.1148 114.793 90.2515 114.656 90.5248 114.656H99.7088C99.9275 114.656 100.037 114.793 100.037 115.066V118.838C100.037 120.642 100.638 122.2 101.841 123.512C103.043 124.769 104.492 125.398 106.187 125.398C107.881 125.398 109.33 124.742 110.533 123.43C111.735 122.118 112.337 120.587 112.337 118.838C112.337 116.815 111.025 115.066 108.401 113.59C107.526 113.098 106.159 112.333 104.301 111.294C102.442 110.255 100.693 109.271 99.0528 108.342C96.0461 106.593 93.8048 104.406 92.3288 101.782C90.9075 99.1033 90.1968 96.0967 90.1968 92.762C90.1968 89.7007 90.9348 86.9673 92.4108 84.562C93.8868 82.102 95.8275 80.1613 98.2328 78.74C100.693 77.3187 103.344 76.608 106.187 76.608C109.084 76.608 111.735 77.346 114.141 78.822C116.601 80.2433 118.541 82.184 119.963 84.644C121.439 87.0493 122.177 89.7553 122.177 92.762V99.486C122.177 99.7047 122.067 99.814 121.849 99.814H112.665C112.446 99.814 112.337 99.7047 112.337 99.486L112.255 92.762C112.255 90.8487 111.653 89.2907 110.451 88.088C109.248 86.8853 107.827 86.284 106.187 86.284C104.492 86.284 103.043 86.94 101.841 88.252C100.638 89.5093 100.037 91.0127 100.037 92.762C100.037 94.566 100.419 96.0693 101.185 97.272C101.95 98.4747 103.344 99.6227 105.367 100.716C105.64 100.88 106.159 101.181 106.925 101.618C107.745 102.001 108.619 102.465 109.549 103.012C110.478 103.504 111.298 103.941 112.009 104.324C112.774 104.707 113.239 104.953 113.403 105.062C116.136 106.593 118.295 108.479 119.881 110.72C121.466 112.907 122.259 115.613 122.259 118.838C122.259 121.954 121.521 124.769 120.045 127.284C118.623 129.744 116.683 131.712 114.223 133.188C111.817 134.609 109.139 135.32 106.187 135.32ZM133.986 134.5C133.822 134.5 133.74 134.391 133.74 134.172L133.822 110.884L122.834 77.756C122.779 77.5373 122.861 77.428 123.08 77.428H132.182C132.455 77.428 132.619 77.5373 132.674 77.756L138.742 99.814L144.892 77.756C144.947 77.5373 145.083 77.428 145.302 77.428H154.486C154.705 77.428 154.787 77.5373 154.732 77.756L143.662 110.556L143.744 134.172C143.744 134.391 143.635 134.5 143.416 134.5H133.986Z" fill="#1186A6"/>
<path d="M6.244 167.78C5.236 167.78 4.32133 167.528 3.5 167.024C2.67867 166.52 2.016 165.848 1.512 165.008C1.02667 164.149 0.784 163.197 0.784 162.152V153.276C0.784 152.268 1.02667 151.344 1.512 150.504C2.016 149.645 2.67867 148.964 3.5 148.46C4.34 147.956 5.25467 147.704 6.244 147.704C7.27067 147.704 8.19467 147.956 9.016 148.46C9.856 148.945 10.5187 149.608 11.004 150.448C11.4893 151.288 11.732 152.231 11.732 153.276V154.564C11.732 154.639 11.6853 154.676 11.592 154.676H8.456C8.38133 154.676 8.344 154.639 8.344 154.564V153.5C8.344 152.791 8.13867 152.203 7.728 151.736C7.336 151.269 6.84133 151.036 6.244 151.036C5.70267 151.036 5.21733 151.26 4.788 151.708C4.37733 152.156 4.172 152.679 4.172 153.276V162.152C4.172 162.768 4.37733 163.3 4.788 163.748C5.19867 164.177 5.684 164.392 6.244 164.392C6.84133 164.392 7.336 164.177 7.728 163.748C8.13867 163.319 8.344 162.787 8.344 162.152V160.78H6.384C6.29067 160.78 6.244 160.733 6.244 160.64V157.504C6.244 157.411 6.29067 157.364 6.384 157.364H11.62C11.6947 157.364 11.732 157.411 11.732 157.504V162.152C11.732 163.197 11.48 164.149 10.976 165.008C10.4907 165.848 9.83733 166.52 9.016 167.024C8.19467 167.528 7.27067 167.78 6.244 167.78ZM13.8375 167.5C13.7628 167.5 13.7255 167.453 13.7255 167.36L13.7535 148.124C13.7535 148.049 13.7908 148.012 13.8655 148.012H22.8535C22.9281 148.012 22.9655 148.059 22.9655 148.152V151.288C22.9655 151.363 22.9281 151.4 22.8535 151.4H17.1135V155.768H22.8535C22.9281 155.768 22.9655 155.805 22.9655 155.88L22.9935 159.044C22.9935 159.119 22.9561 159.156 22.8815 159.156H17.1135V164.056H22.8815C22.9561 164.056 22.9935 164.103 22.9935 164.196V167.388C22.9935 167.463 22.9561 167.5 22.8815 167.5H13.8375ZM30.2258 167.78C29.2178 167.78 28.2938 167.528 27.4538 167.024C26.6324 166.501 25.9698 165.82 25.4658 164.98C24.9618 164.121 24.7098 163.179 24.7098 162.152L24.7378 153.276C24.7378 152.249 24.9804 151.316 25.4658 150.476C25.9698 149.636 26.6418 148.964 27.4818 148.46C28.3218 147.956 29.2364 147.704 30.2258 147.704C31.2338 147.704 32.1484 147.956 32.9698 148.46C33.7911 148.964 34.4444 149.636 34.9298 150.476C35.4338 151.316 35.6858 152.249 35.6858 153.276L35.7138 162.152C35.7138 163.179 35.4618 164.121 34.9578 164.98C34.4724 165.82 33.8098 166.501 32.9698 167.024C32.1484 167.528 31.2338 167.78 30.2258 167.78ZM30.2258 164.392C30.7858 164.392 31.2711 164.168 31.6818 163.72C32.1111 163.253 32.3258 162.731 32.3258 162.152L32.2978 153.276C32.2978 152.66 32.1018 152.137 31.7098 151.708C31.3178 151.279 30.8231 151.064 30.2258 151.064C29.6471 151.064 29.1524 151.279 28.7418 151.708C28.3311 152.119 28.1258 152.641 28.1258 153.276V162.152C28.1258 162.768 28.3311 163.3 28.7418 163.748C29.1524 164.177 29.6471 164.392 30.2258 164.392ZM42.6027 167.78C41.5947 167.78 40.6707 167.528 39.8307 167.024C39.0093 166.501 38.3467 165.82 37.8427 164.98C37.3573 164.121 37.1147 163.179 37.1147 162.152V160.864C37.1147 160.771 37.1613 160.724 37.2547 160.724H40.3907C40.4653 160.724 40.5027 160.771 40.5027 160.864V162.152C40.5027 162.768 40.708 163.3 41.1187 163.748C41.5293 164.177 42.024 164.392 42.6027 164.392C43.1813 164.392 43.676 164.168 44.0867 163.72C44.4973 163.272 44.7027 162.749 44.7027 162.152C44.7027 161.461 44.2547 160.864 43.3587 160.36C43.06 160.192 42.5933 159.931 41.9587 159.576C41.324 159.221 40.7267 158.885 40.1667 158.568C39.14 157.971 38.3747 157.224 37.8707 156.328C37.3853 155.413 37.1427 154.387 37.1427 153.248C37.1427 152.203 37.3947 151.269 37.8987 150.448C38.4027 149.608 39.0653 148.945 39.8867 148.46C40.7267 147.975 41.632 147.732 42.6027 147.732C43.592 147.732 44.4973 147.984 45.3187 148.488C46.1587 148.973 46.8213 149.636 47.3067 150.476C47.8107 151.297 48.0627 152.221 48.0627 153.248V155.544C48.0627 155.619 48.0253 155.656 47.9507 155.656H44.8147C44.74 155.656 44.7027 155.619 44.7027 155.544L44.6747 153.248C44.6747 152.595 44.4693 152.063 44.0587 151.652C43.648 151.241 43.1627 151.036 42.6027 151.036C42.024 151.036 41.5293 151.26 41.1187 151.708C40.708 152.137 40.5027 152.651 40.5027 153.248C40.5027 153.864 40.6333 154.377 40.8947 154.788C41.156 155.199 41.632 155.591 42.3227 155.964C42.416 156.02 42.5933 156.123 42.8547 156.272C43.1347 156.403 43.4333 156.561 43.7507 156.748C44.068 156.916 44.348 157.065 44.5907 157.196C44.852 157.327 45.0107 157.411 45.0667 157.448C46 157.971 46.7373 158.615 47.2787 159.38C47.82 160.127 48.0907 161.051 48.0907 162.152C48.0907 163.216 47.8387 164.177 47.3347 165.036C46.8493 165.876 46.1867 166.548 45.3467 167.052C44.5253 167.537 43.6107 167.78 42.6027 167.78ZM50.178 167.5C50.0846 167.5 50.038 167.453 50.038 167.36L50.094 148.124C50.094 148.049 50.1313 148.012 50.206 148.012H55.582C57.2993 148.012 58.6526 148.535 59.642 149.58C60.65 150.625 61.154 152.044 61.154 153.836C61.154 155.161 60.8926 156.309 60.37 157.28C59.8473 158.251 59.166 158.997 58.326 159.52C57.486 160.043 56.5713 160.304 55.582 160.304H53.454V167.36C53.454 167.453 53.4073 167.5 53.314 167.5H50.178ZM53.454 156.916H55.582C56.1793 156.916 56.6926 156.636 57.122 156.076C57.57 155.497 57.794 154.751 57.794 153.836C57.794 153.108 57.598 152.511 57.206 152.044C56.814 151.577 56.2726 151.344 55.582 151.344L53.454 151.372V156.916ZM60.7071 167.36L64.1791 148.124C64.1977 148.049 64.2444 148.012 64.3191 148.012H68.3791C68.4537 148.012 68.5004 148.049 68.5191 148.124L71.8511 167.36C71.8697 167.453 71.8324 167.5 71.7391 167.5H68.6311C68.5564 167.5 68.5097 167.453 68.4911 167.36L68.1831 165.316H64.3751L64.0671 167.36C64.0484 167.453 64.0017 167.5 63.9271 167.5H60.8191C60.7444 167.5 60.7071 167.453 60.7071 167.36ZM64.9351 162.32H67.6231L66.4751 154.452L66.3071 153.416L66.1951 154.452L64.9351 162.32ZM75.0684 167.5C74.9938 167.5 74.9564 167.453 74.9564 167.36V151.4H71.3164C71.2231 151.4 71.1764 151.353 71.1764 151.26L71.2044 148.124C71.2044 148.049 71.2418 148.012 71.3164 148.012H81.9564C82.0498 148.012 82.0964 148.049 82.0964 148.124V151.26C82.0964 151.353 82.0591 151.4 81.9844 151.4H78.3164L78.3444 167.36C78.3444 167.453 78.3071 167.5 78.2324 167.5H75.0684ZM83.6194 167.5C83.526 167.5 83.4794 167.453 83.4794 167.36L83.5074 148.124C83.5074 148.049 83.5447 148.012 83.6194 148.012H86.7554C86.83 148.012 86.8674 148.049 86.8674 148.124L86.8954 167.36C86.8954 167.453 86.858 167.5 86.7834 167.5H83.6194ZM88.4063 167.36L91.8783 148.124C91.8969 148.049 91.9436 148.012 92.0183 148.012H96.0783C96.1529 148.012 96.1996 148.049 96.2183 148.124L99.5503 167.36C99.5689 167.453 99.5316 167.5 99.4383 167.5H96.3303C96.2556 167.5 96.2089 167.453 96.1903 167.36L95.8823 165.316H92.0743L91.7663 167.36C91.7476 167.453 91.7009 167.5 91.6263 167.5H88.5183C88.4436 167.5 88.4063 167.453 88.4063 167.36ZM92.6343 162.32H95.3223L94.1743 154.452L94.0063 153.416L93.8943 154.452L92.6343 162.32ZM101.42 167.5C101.345 167.5 101.308 167.453 101.308 167.36L101.336 148.152C101.336 148.059 101.382 148.012 101.476 148.012H104.584C104.677 148.012 104.724 148.059 104.724 148.152L104.696 164.056H110.464C110.557 164.056 110.604 164.103 110.604 164.196V167.36C110.604 167.453 110.557 167.5 110.464 167.5H101.42ZM115.176 167.36L118.648 148.124C118.666 148.049 118.713 148.012 118.788 148.012H122.848C122.922 148.012 122.969 148.049 122.988 148.124L126.32 167.36C126.338 167.453 126.301 167.5 126.208 167.5H123.1C123.025 167.5 122.978 167.453 122.96 167.36L122.652 165.316H118.844L118.536 167.36C118.517 167.453 118.47 167.5 118.396 167.5H115.288C115.213 167.5 115.176 167.453 115.176 167.36ZM119.404 162.32H122.092L120.944 154.452L120.776 153.416L120.664 154.452L119.404 162.32ZM128.329 167.5C128.18 167.5 128.105 167.435 128.105 167.304L128.077 148.236C128.077 148.087 128.152 148.012 128.301 148.012H130.821L135.553 159.044L135.413 148.236C135.413 148.087 135.497 148.012 135.665 148.012H138.437C138.549 148.012 138.605 148.087 138.605 148.236L138.633 167.332C138.633 167.444 138.586 167.5 138.493 167.5H136.029L131.185 157.196L131.381 167.276C131.381 167.425 131.297 167.5 131.129 167.5H128.329ZM140.113 167.36L143.585 148.124C143.604 148.049 143.651 148.012 143.725 148.012H147.785C147.86 148.012 147.907 148.049 147.925 148.124L151.257 167.36C151.276 167.453 151.239 167.5 151.145 167.5H148.037C147.963 167.5 147.916 167.453 147.897 167.36L147.589 165.316H143.781L143.473 167.36C143.455 167.453 143.408 167.5 143.333 167.5H140.225C140.151 167.5 140.113 167.453 140.113 167.36ZM144.341 162.32H147.029L145.881 154.452L145.713 153.416L145.601 154.452L144.341 162.32ZM153.127 167.5C153.052 167.5 153.015 167.453 153.015 167.36L153.043 148.152C153.043 148.059 153.089 148.012 153.183 148.012H156.291C156.384 148.012 156.431 148.059 156.431 148.152L156.403 164.056H162.171C162.264 164.056 162.311 164.103 162.311 164.196V167.36C162.311 167.453 162.264 167.5 162.171 167.5H153.127ZM164.478 167.5C164.422 167.5 164.394 167.463 164.394 167.388L164.422 159.436L160.67 148.124C160.651 148.049 160.679 148.012 160.754 148.012H163.862C163.955 148.012 164.011 148.049 164.03 148.124L166.102 155.656L168.202 148.124C168.221 148.049 168.267 148.012 168.342 148.012H171.478C171.553 148.012 171.581 148.049 171.562 148.124L167.782 159.324L167.81 167.388C167.81 167.463 167.773 167.5 167.698 167.5H164.478ZM177.325 167.78C176.317 167.78 175.393 167.528 174.553 167.024C173.732 166.501 173.069 165.82 172.565 164.98C172.08 164.121 171.837 163.179 171.837 162.152V160.864C171.837 160.771 171.884 160.724 171.977 160.724H175.113C175.188 160.724 175.225 160.771 175.225 160.864V162.152C175.225 162.768 175.431 163.3 175.841 163.748C176.252 164.177 176.747 164.392 177.325 164.392C177.904 164.392 178.399 164.168 178.809 163.72C179.22 163.272 179.425 162.749 179.425 162.152C179.425 161.461 178.977 160.864 178.081 160.36C177.783 160.192 177.316 159.931 176.681 159.576C176.047 159.221 175.449 158.885 174.889 158.568C173.863 157.971 173.097 157.224 172.593 156.328C172.108 155.413 171.865 154.387 171.865 153.248C171.865 152.203 172.117 151.269 172.621 150.448C173.125 149.608 173.788 148.945 174.609 148.46C175.449 147.975 176.355 147.732 177.325 147.732C178.315 147.732 179.22 147.984 180.041 148.488C180.881 148.973 181.544 149.636 182.029 150.476C182.533 151.297 182.785 152.221 182.785 153.248V155.544C182.785 155.619 182.748 155.656 182.673 155.656H179.537C179.463 155.656 179.425 155.619 179.425 155.544L179.397 153.248C179.397 152.595 179.192 152.063 178.781 151.652C178.371 151.241 177.885 151.036 177.325 151.036C176.747 151.036 176.252 151.26 175.841 151.708C175.431 152.137 175.225 152.651 175.225 153.248C175.225 153.864 175.356 154.377 175.617 154.788C175.879 155.199 176.355 155.591 177.045 155.964C177.139 156.02 177.316 156.123 177.577 156.272C177.857 156.403 178.156 156.561 178.473 156.748C178.791 156.916 179.071 157.065 179.313 157.196C179.575 157.327 179.733 157.411 179.789 157.448C180.723 157.971 181.46 158.615 182.001 159.38C182.543 160.127 182.813 161.051 182.813 162.152C182.813 163.216 182.561 164.177 182.057 165.036C181.572 165.876 180.909 166.548 180.069 167.052C179.248 167.537 178.333 167.78 177.325 167.78ZM184.901 167.5C184.807 167.5 184.761 167.453 184.761 167.36L184.789 148.124C184.789 148.049 184.826 148.012 184.901 148.012H188.037C188.111 148.012 188.149 148.049 188.149 148.124L188.177 167.36C188.177 167.453 188.139 167.5 188.065 167.5H184.901ZM195.4 167.78C194.392 167.78 193.468 167.528 192.628 167.024C191.806 166.501 191.144 165.82 190.64 164.98C190.154 164.121 189.912 163.179 189.912 162.152V160.864C189.912 160.771 189.958 160.724 190.052 160.724H193.188C193.262 160.724 193.3 160.771 193.3 160.864V162.152C193.3 162.768 193.505 163.3 193.916 163.748C194.326 164.177 194.821 164.392 195.4 164.392C195.978 164.392 196.473 164.168 196.884 163.72C197.294 163.272 197.5 162.749 197.5 162.152C197.5 161.461 197.052 160.864 196.156 160.36C195.857 160.192 195.39 159.931 194.756 159.576C194.121 159.221 193.524 158.885 192.964 158.568C191.937 157.971 191.172 157.224 190.668 156.328C190.182 155.413 189.94 154.387 189.94 153.248C189.94 152.203 190.192 151.269 190.696 150.448C191.2 149.608 191.862 148.945 192.684 148.46C193.524 147.975 194.429 147.732 195.4 147.732C196.389 147.732 197.294 147.984 198.116 148.488C198.956 148.973 199.618 149.636 200.104 150.476C200.608 151.297 200.86 152.221 200.86 153.248V155.544C200.86 155.619 200.822 155.656 200.748 155.656H197.612C197.537 155.656 197.5 155.619 197.5 155.544L197.472 153.248C197.472 152.595 197.266 152.063 196.856 151.652C196.445 151.241 195.96 151.036 195.4 151.036C194.821 151.036 194.326 151.26 193.916 151.708C193.505 152.137 193.3 152.651 193.3 153.248C193.3 153.864 193.43 154.377 193.692 154.788C193.953 155.199 194.429 155.591 195.12 155.964C195.213 156.02 195.39 156.123 195.652 156.272C195.932 156.403 196.23 156.561 196.548 156.748C196.865 156.916 197.145 157.065 197.388 157.196C197.649 157.327 197.808 157.411 197.864 157.448C198.797 157.971 199.534 158.615 200.076 159.38C200.617 160.127 200.888 161.051 200.888 162.152C200.888 163.216 200.636 164.177 200.132 165.036C199.646 165.876 198.984 166.548 198.144 167.052C197.322 167.537 196.408 167.78 195.4 167.78Z" fill="#554A4A"/>
<mask id="mask0" mask-type="alpha" maskUnits="userSpaceOnUse" x="213" y="0" width="250" height="250">
<rect x="213" width="250" height="250" rx="125" fill="#C4C4C4"/>
</mask>
<g mask="url(#mask0)">
<path d="M396.588 11.4807C379.752 3.47812 360.916 -1 341.034 -1C306.35 -1 274.849 12.628 251.594 34.8214C226.87 58.4166 440.349 32.2809 396.588 11.4807Z" fill="#7CCDE3"/>
<path d="M442.402 47.7267C442.55 47.9117 431.834 62.2337 399.628 66.2997C334.623 74.5065 223.019 75.3742 223.188 75.0046C230.092 59.8343 239.835 46.2294 251.739 34.8689C265.765 39.2481 281.032 40.3394 295.473 37.6782C319.317 33.3161 340.53 19.5387 364.116 13.9241C374.584 11.4091 385.99 10.6745 396.732 11.5278C414.581 20.0115 430.183 32.4566 442.402 47.7267Z" fill="#98D5E6"/>
<path d="M468.962 108.343C469.044 108.865 322.375 122.652 250.914 118.633C227.631 117.324 213.891 103.247 214.048 102.479C216.012 92.9007 219.033 83.7081 222.983 75.0279C243.628 63.7276 267.917 57.2061 291.47 57.4635C321.005 57.7658 349.98 67.6129 379.516 66.8787C401.45 66.3209 423.559 59.3201 442.197 47.75C455.932 64.9157 465.392 85.6515 468.962 108.343Z" fill="#B4DDE8"/>
<path d="M470.132 127.91C470.132 128.628 470.114 130.06 470.114 130.06C470.114 130.06 429.377 140.335 376.912 139.722C303.427 138.863 210.998 127.01 211 126.793C211.073 118.196 211.982 109.799 213.652 101.679C231.258 112.542 252.609 117.862 273.16 115.623C289.501 113.852 305.024 107.806 320.158 101.371C335.292 94.9353 350.34 88.025 366.337 84.3107C389.836 78.8689 414.973 80.7692 437.438 89.623C448.366 93.9327 459.209 100.129 468.549 107.6C469.591 114.217 470.132 121 470.132 127.91Z" fill="#F25192"/>
<path d="M323.194 170.017C284.321 177.196 217.609 168.916 217.441 168.404C213.261 155.674 211 142.075 211 127.947C211 127.574 211.002 127.201 211.005 126.829C216.906 122.15 223.799 117.977 230.528 114.735C247.172 106.659 266.057 103.29 284.468 105.104C302.664 106.918 320.04 113.655 336.856 120.911C351.023 127.024 365.099 133.628 379.804 138.19C381.245 138.637 365.985 162.115 323.194 170.017Z" fill="#D34CA3"/>
<path d="M465.618 162.852C462.904 167.436 437.088 182.879 402.093 185.524C355.758 189.026 301.02 175.02 319.178 167.892C347.765 156.663 372.557 136.494 402.093 128.072C424.157 121.751 448.615 122.75 470.275 130.388C470.092 141.614 468.482 152.494 465.618 162.852Z" fill="#9A50A5"/>
<path d="M453.591 192.573C431.218 231.416 268.953 241.157 245.248 215.028C233.182 201.728 223.841 185.908 218.109 168.453C238.036 157.064 261.363 152.227 283.784 155.293C312.802 159.266 338.802 175.462 367.432 181.768C390.543 186.864 415.034 185.266 437.282 177.233C447.34 173.574 457.312 168.67 466.131 162.607C463.201 173.202 458.959 183.253 453.591 192.573Z" fill="#96D180"/>
<path d="M453.058 192.029C430.732 231.051 388.695 257.346 340.517 257.346C302.452 257.346 268.221 240.932 244.516 214.795C248.449 216.299 252.849 217.599 256.882 218.735C279.432 224.954 303.707 224.782 326.128 218.174C340.487 213.941 353.982 207.203 368.082 202.107C394.986 192.405 424.599 188.989 453.058 192.029Z" fill="#86AB79"/>
<circle cx="320.5" cy="52.5" r="12.5" fill="#1186A6"/>
<circle cx="412.5" cy="125.5" r="12.5" fill="#DD86A9"/>
<circle cx="284.5" cy="189.5" r="12.5" fill="#498333"/>
<path d="M330 61L402 117" stroke="url(#paint0_linear)" stroke-dasharray="5 5"/>
<path d="M296 184L400 132" stroke="url(#paint1_linear)" stroke-dasharray="5 5"/>
</g>
<defs>
<linearGradient id="paint0_linear" x1="327.636" y1="64.8382" x2="398.883" y2="120.432" gradientUnits="userSpaceOnUse">
<stop stop-color="#1186A6"/>
<stop offset="1" stop-color="#830E3D"/>
</linearGradient>
<linearGradient id="paint1_linear" x1="298.563" y1="187.728" x2="401.704" y2="136.415" gradientUnits="userSpaceOnUse">
<stop offset="0.00418635" stop-color="#498333"/>
<stop offset="1" stop-color="#830E3D"/>
</linearGradient>
</defs>
</svg>
